<?xml version="1.0" standalone="no"?>
<!DOCTYPE svg PUBLIC "-//W3C//DTD SVG 20010904//EN"
 "http://www.w3.org/TR/2001/REC-SVG-20010904/DTD/svg10.dtd">
<svg version="1.0" xmlns="http://www.w3.org/2000/svg"
 width="512.000000pt" height="512.000000pt" viewBox="0 0 512.000000 512.000000"
 preserveAspectRatio="xMidYMid meet">
<metadata>
Created by potrace 1.14, written by Peter Selinger 2001-2017
</metadata>
<g transform="translate(0.000000,512.000000) scale(0.100000,-0.100000)"
fill="#000000" stroke="none">
<path d="M3673 5106 c-23 -7 -62 -25 -85 -39 -24 -14 -756 -739 -1627 -1611
-1566 -1566 -1584 -1585 -1532 -1569 82 24 200 14 274 -22 68 -34 139 -106
169 -172 29 -66 36 -204 14 -269 -9 -26 -14 -49 -13 -51 2 -1 25 4 51 13 65
22 203 15 269 -14 66 -30 142 -104 174 -171 35 -73 44 -205 19 -277 -9 -26
-14 -49 -13 -51 2 -2 21 4 43 14 27 11 66 17 124 17 109 0 186 -32 259 -108
105 -111 134 -240 85 -379 -12 -36 224 196 1580 1553 1798 1797 1651 1637
1650 1800 0 155 25 123 -588 738 -608 610 -598 602 -739 608 -43 3 -89 -2
-114 -10z"/>
<path d="M75 668 c-2 -7 -20 -124 -41 -260 -36 -243 -36 -249 -20 -293 20 -52
61 -90 115 -106 31 -9 78 -5 292 28 l254 38 3 30 c6 47 -47 191 -98 269 -87
131 -208 227 -353 277 -87 31 -145 37 -152 17z"/>
</g>
</svg>
